<?xml version="1.0" encoding="utf-8"?>
<!-- Generator: Adobe Illustrator 19.2.0, SVG Export Plug-In . SVG Version: 6.00 Build 0)  -->
<svg version="1.1" id="Layer_1" xmlns="http://www.w3.org/2000/svg" xmlns:xlink="http://www.w3.org/1999/xlink" x="0px" y="0px"
	 width="1440px" height="550px" viewBox="0 0 1440 550" style="enable-background:new 0 0 1440 550;" xml:space="preserve">
<style type="text/css">
	.st0{fill:url(#SVGID_1_);}
	.st1{fill:#B0D821;}
	.st2{fill:#935D8D;}
	.st3{fill:#F4B687;}
	.st4{fill:#D0C7D3;}
	.st5{fill:#B571AF;}
	.st6{fill:#FF3F68;}
	.st7{fill:#934D27;}
	.st8{fill:#B25A34;}
	.st9{fill:#DB7E40;}
	.st10{fill:#D44421;}
	.st11{fill:#FFFFFF;}
	.st12{fill:#FF3F6F;}
	.st13{fill:#ECB27C;}
	.st14{fill:#FFDEAE;}
	.st15{fill:#5671AF;}
	.st16{fill:#2C5193;}
	.st17{fill:#21487F;}
	.st18{fill:#3C6291;}
	.st19{fill:#31557C;}
	.st20{fill:#446BA5;}
	.st21{fill:#97A81F;}
	.st22{fill:#5A3D1B;}
	.st23{fill:#F4BF7A;}
	.st24{fill:#704923;}
	.st25{fill:#D32322;}
	.st26{fill:#955C19;}
	.st27{fill:#AC7719;}
	.st28{fill:#90633C;}
	.st29{fill:#9E5E3A;}
	.st30{fill:#F7DDAD;}
	.st31{fill:#FFBFDA;}
	.st32{fill:#B6ADD3;}
	.st33{fill:#FFBB3F;}
	.st34{fill:#D6DEF2;}
	.st35{fill:#EFBF7A;}
	.st36{fill:#F57563;}
	.st37{fill:#F4CD9D;}
	.st38{fill:#CDAF6A;}
	.st39{fill:#924D26;}
	.st40{fill:#E6C682;}
	.st41{fill:#F57562;}
	.st42{fill:#AA9559;}
	.st43{fill:#F07EA2;}
	.st44{fill:#00293F;}
	.st45{fill:#56AC5B;}
	.st46{fill:#075E84;}
	.st47{fill:#FFAF22;}
	.st48{fill:#F99900;}
	.st49{fill:#FFC01F;}
	.st50{fill:#FFD4AE;}
	.st51{fill:#FF4F1F;}
	.st52{fill:#EFB88B;}
</style>
<radialGradient id="SVGID_1_" cx="721" cy="474.8539" r="636.353" gradientTransform="matrix(1 0 0 1.8748 0 -288.9823)" gradientUnits="userSpaceOnUse">
	<stop  offset="0" style="stop-color:#F7FCFE"/>
	<stop  offset="1" style="stop-color:#B4E6F0"/>
</radialGradient>
<rect class="st0" width="1442" height="550"/>
<path class="st1" d="M1442,459.8l-13,7.7c0,0,0.3-8.7,3.7-15.8l-14,14.3l-3.9-7.5c-11,4.5-12-3-5.8-11.3l-20,12.8
	c0,0-1.5-11.4,0.8-16.3c2.2-4.9-22.9,12.9-22.9,12.9s0-7.9,1.4-12.8c-2.3,3.8-7.3,10-13.7,10.7c0,0-0.7-5.6,2.2-9.1
	c0,0-8.7,3.8-10,8.1c0,0-7.7-3.5-5.2-6.6c0,0-6.1,8.2-9.2,7c-3-1.2,5.4-10.2,10.3-13.4c0,0-15.2,5.7-20.8,10.3c0,0-0.7-5.6,2.3-8.2
	c3-2.6-10.5,7.8-10.5,7.8s-2-4.1,1.7-9.1c3.7-4.9,1.2-5.6-3.6-2.1c-4.8,3.5-9.4,8.8-15.7,8.6c-6.3-0.2,3.9-6.8,3.9-6.8l-12.3,5.5
	c0,0,1.7-9.2,3.8-11.5c2.1-2.2-20.4,9.8-20.4,9.8l2.1-13.2l-15.1,10l-4-12.2l-14.2,9.5l-1.9-11.2l-15.4,7.5c0,0-3.7-6.1,1.1-10
	c4.8-3.9-13.6,6.6-15.2,9.1c0,0-1.8-5.9,0.3-8.9c2-2.9-8.3,2.9-11.3,6c-3,3.1-5.7-3.3-2.8-6.8c2.9-3.5-18.4-0.7-24.3,2.1
	c-2.1,1-7.3,2.8-12.6,4.8c-3.5-3.7-6.1-7.7-6.1-11.2l-7,11.3c0,0-1.7-8.8-1.9-15.5l-12.2,12.4c0,0-4.5-8.5-5-15.7l-5.9,15.1
	l-7.9-7.1c-8.3,5.3-13.4-2-11.9-10.6l-12.5,14.1c0,0-7.7-11-8.2-16c-0.5-5-15.3,14.4-15.3,14.4s-4.4-7.8-5.7-12.6
	c-0.2,3.9-1.6,10.4-7.5,11.5c0,0-3.8-5.4-2.8-9.1c0,0-6.4,4.4-5.3,8.7c0,0-9.4-2.8-8.7-6c0,0-1.5,8.5-5.1,7.6
	c-3.6-0.9-0.3-10.4,2.7-13.9c0,0-11.7,6.7-14.7,11.7c0,0-3.8-5.4-2.2-8.2c1.6-2.8-6,8.4-6,8.4s-4.2-3.9-3.3-9
	c0.9-5.1-1.9-5.6-4.7-1.8c-2.8,3.8-4.4,9.4-10.7,9.6c-6.3,0.2,0.1-6.9,0.1-6.9l-9,6.3c0,0-3.4-9.2-2.6-11.5
	c0.9-2.3-14.6,11.1-14.6,11.1l-5.2-13.1l-9.2,11L938,405.4l-8.7,10.4l-8-10.8l-11,8.5c0,0-6.9-5.7-4.4-9.8c2.6-4.2-9.7,7.5-9.8,10.1
	c0,0-5-5.7-4.6-8.7c0.4-3-6.6,3.4-7.7,6.7c-1.2,3.3-7.5-2.8-6.5-6.4c0.9-3.3-15.1,0-21.2,3c-6.3-0.4-17.5,3.8-20.2,5.3
	c-4.1,2.3-4.1-3.8-3.1-8.1c1-4.2-12.3,6.5-17.4,8.8c-5.1,2.3-7.2-3.5-5.1-7.7c2.1-4.2-10.3,5.4-15.4,8.1c-5.1,2.7-13.3-2.3-15.4-7.3
	c-2.1-5-9.2,5.8-13.3,7.3c-4.1,1.5-7.2-5-11.3-9.2c-4.1-4.2-7.2,6.1-12.3,8.5c-5.1,2.3-11.3-3.1-12.3-9.6c-1-6.5-10.3,4.6-18.5,8.8
	c-8.2,4.2-15.4-2.3-17.4-6.5c-2.1-4.2-9.2,2.7-14.4,5.8c-5.1,3.1-14.4-1.9-17.4-5c-3.1-3.1-12.3,2.3-20.5,4.2
	c-8.2,1.9-12.3-4.2-16.4-6.5c-4.1-2.3-3.1,4.2-6.2,6.1c-3.1,1.9-13.3-4.6-16.4-6.5c-3.1-1.9,4.1,6.9-9.2,8.8
	c-13.3,1.9-12.3-3.5-17.4-5.4c-5.1-1.9-2.1,3.1-9.2,6.5c-7.2,3.5-9.2-3.1-16.4-5.4c-7.2-2.3-2.1,7.3-2.1,7.3s-10.3-3.1-16.4-6.5
	c-6.2-3.5,0,4.6-9.2,6.9c-9.2,2.3-15.4-2.7-23.6-5c-8.2-2.3,3.1,5-5.1,6.5c-8.2,1.5-9.2-8.1-17.4-9.6c-8.2-1.5,0,10.4-2.1,11.9
	c-2.1,1.5-12.3-3.1-17.4-4.6c-5.1-1.5,9.2,5.8-1,6.5c-10.3,0.8-15.4-8.8-21.5-11.5c-6.2-2.7,0,11.5-6.2,12.3
	c-6.1,0.8-5.1-7.7-11.3-7.7c-6.2,0-4.1,9.2-4.1,9.2s-9.2-6.1-12.3-7.3c-3.1-1.2-5.1,7.7-5.1,7.7s-15.4-0.8-21.5-1.9
	c-6.1-1.2-2.1,3.8-4.1,5.8c-2,1.9-15.4-4.6-17.4-6.1c-2-1.5-13.3,1.5-7.2,6.5c6.2,5-6.2,10-11.3,7.7S319,427.3,319,427.3l1,10
	l-18.5-6.5v9.2l-20.5-9.6l1.5,9.6c-0.1,0-0.2-0.1-0.3-0.1c-6.3-2.7-27.9-5.1-24.6-1.6c3.4,3.4,1.4,9.9-1.9,6.9
	c-3.4-3.1-14.5-8.7-12-5.8c2.4,2.9,1.4,8.8,1.4,8.8c-1.9-2.5-21.7-12.6-16.4-8.8c5.3,3.8,2.4,9.9,2.4,9.9l-16.4-7.2l-0.5,11.2
	l-15.4-9.2l-2.4,12.3l-16.4-9.7l3.9,13.2c0,0-24.1-11.6-21.7-9.4c2.4,2.2,5.3,11.4,5.3,11.4l-13-5.2c0,0,11.1,6.3,4.8,6.7
	c-6.3,0.4-11.6-4.9-16.9-8.3c-5.3-3.4-7.7-2.7-3.4,2.2c4.3,4.9,2.9,9,2.9,9s-14.9-10.1-11.6-7.6c3.4,2.5,3.4,8.1,3.4,8.1
	c-6.3-4.5-22.2-9.9-22.2-9.9c5.3,3.1,14.9,11.9,12,13.2c-2.9,1.3-10.1-6.9-10.1-6.9c2.9,3.1-4.3,6.7-4.3,6.7
	c-1.9-4.3-11.1-7.9-11.1-7.9c3.4,3.4,3.4,9,3.4,9c-6.5-0.6-12.2-6.6-15.1-10.4c2,4.8,3,12.8,3,12.8S62.1,455.7,65,460.6
	c2.9,4.9,2.9,16.2,2.9,16.2l-21.7-12.5c7.2,8.1,7.2,15.7-4.3,11.4l-2.9,7.6l-15.9-14.1c4.3,7,5.8,15.7,5.8,15.7L8.7,474.2
	c4.3,6.5,8.7,15.2,8.7,15.2L2.9,479c4.3,6.1,1.5,14.2-1.5,19.9c-0.4,0.1-0.9,0.2-1.4,0.3V550h1442v-79.1l-0.8,0.7
	c0,0,0.3-0.8,0.8-2.2V459.8z M1057.4,412.2c0,0.6,0.1,1.5,0.4,2.4C1057.9,412.1,1057.5,410.6,1057.4,412.2z M86.6,464.4
	c-0.4-0.9-0.8-1.8-1.3-2.4C84.1,460.5,84.8,462,86.6,464.4z M1369.2,445.6c-0.4,0.6-0.7,1.5-1,2.4
	C1369.7,445.6,1370.1,444.1,1369.2,445.6z"/>
<g>
	<path class="st2" d="M616.7,406.9c0,0,2.6,15.4-6,18.9c-8.6,3.4-50.5,14.1-39.4,1.7C585.8,411.2,603,403.4,616.7,406.9z"/>
	<path class="st2" d="M767.4,420.4c0,0-11.1-0.9-9.4,6.9c1.7,7.7,19.7,42,23.1,33.4c3.4-8.6-5.1-38.6-5.1-38.6L767.4,420.4z"/>
	<path class="st3" d="M684.4,326.3c0,0-53.8,57.3-73.1,76c-2.1,2-3.7,3.6-4.9,4.6c0,0-2.6,10.3,6.9,9.4l87.4-75.4L684.4,326.3z"/>
	<path class="st3" d="M757.1,354.4c0,0,12.9,33.4,12,42.9c-0.9,9.4-5.1,28.3-5.1,28.3s2.6,6.9,10.3,2.6c7.7-4.3,8.6-27.4,8.6-36
		c0-8.6-9.4-45.4-9.4-45.4L757.1,354.4z"/>
	<path class="st3" d="M706.1,223.2c-1.7,1.7-65.1,32-68.6,32.6c-3.4,0.6-12,0.6-12.6,4c-0.6,3.4-1.7,7.4-4,9.7
		c-2.3,2.3-11.4,8.6-2.3,6.9c9.1-1.7,16.6-9.1,16.6-9.1l73.1-27.4L706.1,223.2z"/>
	<path class="st3" d="M783.2,189.2c0,0,26.4-19.8,26.4-28c0-8.1-34.1-4.3-34.1-4.3l-1.5-10c0,0,36.1-11.2,50.9,3.6
		c14.8,14.7-23.7,59.2-23.7,59.2L783.2,189.2z"/>
	<path class="st4" d="M708.7,285.4c0,0,1.9,8.3,29.3,11.7c37.8,4.7,48.5-4.9,47.3-4.9C784.3,292.3,708.7,285.4,708.7,285.4z"/>
	<path class="st5" d="M723,247.5c0,0-6,25.7-16.3,38.6c0,0,55.7,19.7,82.3,6c0,0-14.6-62.4,21.5-84.3L788.8,184
		c0,0-15.3,12-22.1,16.3c0,0-16.8,12-36.9,14.1c-14.7,1.5-27.4,7.4-27.4,7.4l4.3,25.7C706.7,247.5,720.4,241.5,723,247.5z"/>
	<path class="st3" d="M735.4,213.6c0,0,3.6,6.4,12,3.4c8.4-3.1,8.1-9.7,8.1-9.7l-2.5-9.7l-20.1,6.4L735.4,213.6z"/>
	<path class="st6" d="M729.8,214.4c0,0-7.5,42.8-24.3,64.8c-16.8,22-41.1-6.9-64.3,16.2c0,0-6.9,15.6,16.8,24.3
		c23.7,8.7,34.7,11.6,39.4,20.3c4.6,8.7,34.3,34.5,53.6,25.4c19.3-9.1,35.6-20.5,46.3-18c10.7,2.5,57.6-1,66.8-26.4
		c0,0-59.6-9.3-75.3-60.2c-15.6-50.9-22.2-60.3-22.2-60.3l-3.8,2.5c0,0,17.4,50.9,0,56.1c-17.4,5.2-28.9-9.3-28.9-22.6
		c0-13.3,1.5-22.8,1.5-22.8L729.8,214.4z"/>
	<g>
		<g>
			<path class="st7" d="M793.3,144.2c0,0,19.4-7.1,30.2,11.7l-5.7-0.3c0,0,6.7,3.4,5.4,16.4c-1.3,13-18,4.8-23.5-3.7
				c0,0,6.9,9.5,11.3,12.1c4.4,2.5-10.1,1-15.3-7.2c-5.2-8.2-6.4-22-6.4-22L793.3,144.2z"/>
			<path class="st8" d="M803.5,147.3c0,0,13.1,0.1,17.2,6.1l-9.4-0.5c0,0,10.6,8.2,8.4,18C819.7,170.9,815.9,156.2,803.5,147.3z"/>
			<path class="st8" d="M795.8,163.1c0,0,8.4,13.6,20.2,13C816,176.1,800.4,181.3,795.8,163.1z"/>
		</g>
		<g>
			<path class="st7" d="M688.8,172.8c0,0-20,5-18.6,26.7l4.6-3.5c0,0-3.7,6.6,4.6,16.6c8.2,10,17.6-6.1,17.5-16.3
				c0,0-0.5,11.8-2.8,16.4c-2.2,4.6,9-4.8,8.7-14.6c-0.2-9.8-6.8-21.9-6.8-21.9L688.8,172.8z"/>
			<path class="st8" d="M682,181.1c0,0-10.9,7.4-10.9,14.8l7.5-5.7c0,0-4.3,12.7,3,19.6C681.6,209.8,676.7,195.5,682,181.1z"/>
			<path class="st8" d="M697.1,189.9c0,0,0.5,16.1-9.6,22.1C687.5,212.1,703.4,207.7,697.1,189.9z"/>
		</g>
		<path class="st7" d="M682.5,165.7c0,0-40.4-59.9,32.6-87.8c71.4-27.2,93.4,59,78.8,73.5C779.2,165.8,682.5,165.7,682.5,165.7z"/>
		<path class="st3" d="M680.3,133.5c0,0-2.2,35.3,9.4,54.9c11.6,19.6,40.8,33.7,71.8,13.2c24.8-16.4,25.5-35.5,25.6-32.4
			c0,0,0.8-52.2-31.1-68.8C724,83.6,685.9,117.4,680.3,133.5z"/>
		<path class="st3" d="M787,169.1c0,0,8.1-5.1,10.3-14.4c2.1-9.4-4.4-22.7-12.6-7.8C776.6,161.7,784.9,169.7,787,169.1z"/>
		<path class="st9" d="M791,149.7c0,0-4.3,2.1-3.5,3.2c0.8,1.1,2.6-1.1,2.6,0.4c0,1.5-7,8.4-5.6,2.8
			C785.9,150.6,789.6,147.3,791,149.7z"/>
		<path class="st9" d="M724.8,178.7c0,0,3.8,3.7,6.5,1.9c2.7-1.9,4.7-5.8,3.4-5.4c-1.3,0.4-4.6,2.8-6,3
			C727.3,178.4,724.7,178,724.8,178.7z"/>
		<g>
			<path class="st10" d="M723.1,189.1c-0.2,0.3-0.2,0.7,0.1,0.9c0.2,0.2,6.5,6.2,11.8,4c5.2-2.1,7.7-9.7,7.9-10
				c0.1-0.3,0-0.7-0.3-0.9c-0.3-0.1-0.7,0-0.9,0.3c0,0.1-2.8,6.3-7.5,8.2c-4.6,1.9-10.1-2.7-10.2-2.7
				C723.8,188.8,723.4,188.9,723.1,189.1z"/>
		</g>
		<g>
			<path d="M764.6,149.3c0.9,1.9,0.2,4.2-1.7,5.1c-1.9,0.9-4.1,0.2-5.1-1.7c-0.9-1.9-0.2-4.2,1.7-5.1
				C761.3,146.7,763.6,147.5,764.6,149.3z"/>
			<path d="M707.4,160.6c0.9,1.9,0.2,4.2-1.7,5.1c-1.9,0.9-4.1,0.2-5.1-1.7c-0.9-1.9-0.2-4.2,1.7-5.1
				C704.2,158,706.5,158.8,707.4,160.6z"/>
		</g>
		<path class="st7" d="M678.4,129.6c0,0,24.8,11.2,54.2,2.9c29.4-8.3,34.2-7.1,34.2-7.1s19.9,8.6,16.8,24.3c0,0,9.2-10,1.2-26.4
			c-8-16.4-41.9-46.8-74.7-28.5C677.2,113.2,678.4,129.6,678.4,129.6z"/>
		<path class="st8" d="M683.3,122.2c0,0,13.3,10.3,31.2,7.9c0,0-13.1-2.8-14.2-6.6c0,0,7.6,1.4,25.8-1.1c18.2-2.5,47.2-10,56,6.8
			c0,0-11.6-53.3-45-48.2c-33.4,5.1-34.8,19.6-48.1,25c0,0,6.6,3.8,12.9,2.2C701.9,108.3,691,123,683.3,122.2z"/>
		<path class="st7" d="M678.8,130.8c0,0,12.3,15.1,41.3,7.6c0,0-19.9-1.8-24.2-7C691.7,126.2,678.8,130.8,678.8,130.8z"/>
		<polygon class="st11" points="762.6,111.6 763.9,127.3 767,127.4 765.2,111.2 		"/>
		<g>
			<path class="st11" d="M771.5,109.8c0-1.4-1.1-2.6-2.5-2.7c0.2-0.4,0.3-0.9,0.3-1.3c0-1.5-1.3-2.7-2.8-2.7c-1.2,0-2.2,0.8-2.5,1.9
				c-0.5-0.5-1.2-0.9-2.1-0.9c-1.5,0-2.7,1.3-2.7,2.9c0,0.4,0.1,0.7,0.2,1c-1.4,0.2-2.5,1.4-2.4,2.8c0,1.5,1.3,2.7,2.8,2.7
				c0.1,0,0.2,0,0.3,0c-0.1,0.3-0.1,0.6-0.1,0.9c0,1.5,1.3,2.7,2.8,2.7c1.1,0,2.1-0.7,2.5-1.7c0.5,1,1.4,1.6,2.5,1.6
				c1.5,0,2.7-1.3,2.7-2.8c0-0.7-0.3-1.3-0.7-1.8C770.8,112,771.5,111,771.5,109.8z M765.1,113.2c-0.5-1-1.4-1.6-2.5-1.6
				c-0.1,0-0.2,0-0.3,0c0.1-0.3,0.1-0.6,0.1-0.9c0-0.4-0.1-0.7-0.2-1c1.1-0.1,2-0.9,2.3-1.9c0.5,0.5,1.1,0.8,1.8,0.8
				c-0.2,0.4-0.3,0.9-0.3,1.3c0,0.7,0.3,1.3,0.7,1.8C766,112,765.4,112.5,765.1,113.2z"/>
			<path class="st12" d="M767.7,110c0.1,2-1.5,3.6-3.4,3.6c-1.9,0.1-3.6-1.5-3.6-3.5c-0.1-2,1.5-3.6,3.4-3.6
				C766,106.5,767.6,108.1,767.7,110z"/>
			<path class="st12" d="M763.9,110.1c0,0.1,0.1,0.1,0.2,0.1c0.1,0,0.2-0.1,0.2-0.2c0-0.1-0.1-0.1-0.2-0.1
				C764,110,763.9,110,763.9,110.1z"/>
		</g>
	</g>
</g>
<g>
	<g>
		<path class="st13" d="M1086.3,216c0,0,0.8,5.5-1.8,8.5c-2.6,3-5.5,1.5-5.5,1.5l0.6-6.3c0,0,3.5-3.6,4-4.1
			C1084,215,1086.3,216,1086.3,216z"/>
		<path class="st14" d="M1085.4,218.1c0,0,4.8-1.3,5.5-3c0.7-1.6-0.1-2.5-1.7-2.7c-1.6-0.2-4,0.7-4,0.7s0.7-5.3-2-5.3
			c-2.7,0-9.1,2.3-10,4.4c-0.9,2,0.2,9.2-1.7,10.1c-4.1,1.9-67,16-67,16l4.3,16.3c0,0,58.3-22.6,63-24.5c4.7-1.8,9.5-2.6,10.2-3.8
			C1082.7,225.2,1082.2,220.8,1085.4,218.1z"/>
		<path class="st13" d="M1079.1,213.4c0,0,2.8,1,3.1,0.2c0.4-0.8,0.5-2.2,0.5-2.2L1079.1,213.4z"/>
	</g>
	<g>
		<path class="st15" d="M923.1,482.3c0,0-29.3,22.9-24.6,27c4.7,4.1,37-11.1,38.1-18.8C937.8,482.9,923.1,482.3,923.1,482.3z"/>
		<path class="st15" d="M1115.5,403.1c0,0-2.9,7.6,5.9,8.2c8.8,0.6,29.2,11.7,29.2,2.3c0-15.8-38-17-38-17L1115.5,403.1z"/>
		<path class="st14" d="M940.1,403.1c0,0-18.8,79.2-21.1,83.9c-2.3,4.7,8.2,8.8,13.5-4.7c5.3-13.5,28.2-70.4,28.2-70.4L940.1,403.1z
			"/>
		<path class="st14" d="M1054,367.3c0,0,63.4,42.8,67.5,39.9s0-8.2-2.9-10c-2.9-1.8-55.7-39.9-55.7-39.9L1054,367.3z"/>
		<path class="st16" d="M953.4,325.2l-26.8,79c0,0,34.2,17.4,51.2,14.4l17.7-60.7l56.6,24.1c0,0,14.1-16.7,18.8-33.6
			c3-10.7-3.1-10.7-3.1-10.7l-53.2-32.7L953.4,325.2z"/>
		<path class="st17" d="M949.1,334.9c0,0,7.6,12.6,33.9,6.1c26.3-6.5,46.2-26.3,46.2-26.3L949.1,334.9z"/>
		<path class="st17" d="M1053.9,375.3c-3.6,1.3-53.4-18.1-53.4-18.1s1.8-1.5,3.8-3.1c2-1.5-3.1,1.3-6.1,0
			c-3.1-1.3-2.8-11.7-3.6-11.7c-0.8,0-0.5,11.7-0.5,11.7s-5.8,4.6-6.1,5.8c-0.3,1.3,5.6-2.8,5.6-2.8s-10.7,30.8-13.2,37.9
			c-2.1,5.9-17.3,17.4-22.6,21.3c7.3,2,14.6,3.2,20,2.2l17.7-60.7l56.6,24.1c0,0,1.9-2.3,4.5-5.9
			C1055.8,375.4,1054.8,375,1053.9,375.3z"/>
		<path class="st17" d="M952.1,329.1c0,0,6.9,3.6,26.4-3.1c19.6-6.6,37.1-13.5,36.9-19.8c-0.3-6.4-61.3,15.5-61.3,15.5L952.1,329.1z
			"/>
		<path class="st18" d="M937,365.3c0,0-7.6,16.4-5.3,20.2c2.3,3.8,13.3,9.5,17.9,1.5c4.6-8,2.7-21.7,2.7-21.7H937z"/>
		<path class="st19" d="M933.4,379.3c0,0,2.4,2,3.6,1.9c1.1-0.1,1.4-0.6,1.4-0.6l3.3-10.3c0,0,6.9,0.1,7.1-2.3
			c0.3-2.4-9.2-1.3-9.2-1.3l-6.2,12.1"/>
		<path class="st19" d="M947.7,366.8c-0.4,1.9-2.7,18.3-6.5,21.4c0,0,3.8-0.4,6.5-5.3c2.7-5,2.7-17.5,2.7-17.5L947.7,366.8z"/>
		<path class="st20" d="M942.7,358.4c0,0,11.4,5,11.1,6.9c-0.4,1.9-10.3,6.9-16.8,2.7C930.5,363.8,942.7,358.4,942.7,358.4z"/>
		<path class="st20" d="M937,367.4c0,0-2.7,9.4-4.2,11.3c0,0,2,2.2,4.5,1.8l4.2-12.6L937,367.4z"/>
		<path class="st17" d="M930.9,399.2c0,0,27.1,13,48.1,12.2C979,411.4,954.9,413.7,930.9,399.2z"/>
		<path class="st17" d="M1046.1,376.4c0,0,16.4-20.2,17.2-38.5C1063.3,337.8,1068.6,355.8,1046.1,376.4z"/>
		<path class="st18" d="M1039.4,324.1c0,0,9,10.3,13.2,6.9c4.2-3.4-11.6-11.4-11.6-11.4L1039.4,324.1z"/>
		<path class="st20" d="M1035.6,318c0,0,1.5,6.5,3.2,6.7c1.7,0.2,3.8-5.3,3.8-5.3S1037.7,315.7,1035.6,318z"/>
	</g>
	<path class="st14" d="M930.5,252.8c0,0-54.3,12.7-70,8.9c-8.5-2.1-10.9-2.1-16.2-3.6c-5.2-1.6-3.3,0.5-1.9,1.2c1.4,0.7,3,3,3,3
		s-5.7,0.2-9.5,1.2c-3.8,1-6.9,6.1-3,6.6c4,0.5,10.6,1.9,10.6,1.9s-2.3,4.2-4.5,4.9c-2.3,0.7,0.7,2.1,3.1,1c2.4-1,6.5-3.2,9.2-2.4
		c7.8,2.3,10.8-4.1,10.8-4.1s59.7-0.2,67.9,1.5C938.2,274.6,930.5,252.8,930.5,252.8z"/>
	<path class="st21" d="M924,252.6l1.1,21.8c0,0,16.7,0.5,18.2,6.4c8.4,31.3,0,52.2,0,52.2s12.3,10.1,34,5.3
		c37-8.2,55.7-22.9,55.7-22.9c0.4-0.3-0.9-33.2-21.9-59.4l8.4-2.3l-5.4-19.1C1014.2,234.6,926.4,252.6,924,252.6z"/>
	<path class="st14" d="M957.9,246c1.1,0.8,7.8,5.6,14.3,3.7c4.7-1.3,6.1-5.3,6.5-7.9C971.8,243.2,964.7,244.7,957.9,246z"/>
	<g>
		<path class="st22" d="M1006.6,185.7c0,0,5.3-15.5-1.7-29c-7.1-13.5-12.2-13.4-12.2-13.4s-2.4-18.4-28.6-21.6
			c-26.2-3.2-67.4,10.4-72.5,49.2c0,0-2.8,24.1,9.9,35.7C916.8,220.8,1006.6,185.7,1006.6,185.7z"/>
		<path class="st14" d="M1013,178.3c2.2,1.3,3.6,3.4,3.1,6.3c-1.1,6.5-11.4,10.2-16.8,6.5C989.5,184.4,1004.9,173.7,1013,178.3z"/>
		<path class="st23" d="M1012,181.3c0,0-4.1,1.7-3.5,2.7c0.6,1,2.5-0.8,2.4,0.6c-0.1,1.3-7.1,7.2-5.4,2.2
			C1007.1,181.8,1010.8,179,1012,181.3z"/>
		<path class="st14" d="M897.2,208.5c-1.4,2.2-1.7,4.8,0.1,7.1c4,5.2,14.7,3.4,17.7-2.5C920.7,202.3,902.3,200.4,897.2,208.5z"/>
		<path class="st23" d="M900.5,211.5c0,0,4.4-0.2,4.3,1c-0.1,1.2-2.6,0.3-2,1.5c0.7,1.2,9.5,3.6,5.8-0.3
			C905.1,209.9,900.6,208.9,900.5,211.5z"/>
		<path class="st14" d="M1002.3,171.3c11.5,24.1,6.1,57.5-25.5,68.1c-32.2,10.8-57.2,0.9-68.6-23.1c-11.5-24.1,1.1-54.2,26.8-66.4
			C960.7,137.6,990.8,147.2,1002.3,171.3z"/>
		<path class="st23" d="M953.9,209.2c0,0,3.1,3.5,5.6,2.1c2.5-1.4,4.5-4.7,3.4-4.5c-1.1,0.2-4.3,2.1-5.5,2.2
			C956.1,209.2,953.8,208.6,953.9,209.2z"/>
		<g>
			<path d="M932.5,194.1c1.1,1.6,0.7,3.8-0.8,4.9c-1.6,1.1-3.8,0.7-4.9-0.8c-1.1-1.6-0.7-3.8,0.8-4.9
				C929.2,192.2,931.4,192.5,932.5,194.1z"/>
		</g>
		<g>
			<ellipse transform="matrix(0.8166 -0.5772 0.5772 0.8166 72.3129 596.3449)" cx="974.6" cy="184.4" rx="3.5" ry="3.5"/>
		</g>
		<g>
			<g>
				<path d="M929.2,179.4c-5.3,1.3-9.7,4.5-12.4,9c-2.5,4.2-3.3,9-2.1,13.6c1.1,4.6,4.1,8.5,8.3,11.1c4.5,2.7,9.9,3.5,15.2,2.2
					c10.5-2.6,17-12.8,14.5-22.7l0,0C950.1,182.7,939.6,176.8,929.2,179.4z M924.8,210.1c-3.4-2-5.7-5.2-6.7-8.9
					c-0.9-3.7-0.3-7.6,1.7-11c2.2-3.7,5.9-6.4,10.2-7.4c8.6-2.1,17.2,2.7,19.2,10.7l0,0c2,8-3.4,16.3-11.9,18.4
					C932.9,213,928.5,212.4,924.8,210.1z"/>
			</g>
			<g>
				<path d="M974.3,168.2c-5.3,1.3-9.7,4.5-12.4,9c-2.5,4.2-3.3,9-2.1,13.6c1.1,4.6,4.1,8.5,8.3,11.1c4.5,2.7,9.9,3.5,15.2,2.2
					c5.3-1.3,9.6-4.5,12.4-9c2.5-4.2,3.3-9,2.1-13.6l0,0c-1.1-4.6-4.1-8.5-8.3-11.1C984.9,167.7,979.5,166.9,974.3,168.2z
					 M969.9,198.9c-3.4-2-5.7-5.2-6.7-8.9c-0.9-3.7-0.3-7.6,1.7-11c2.2-3.7,5.9-6.4,10.2-7.4c4.4-1.1,8.8-0.4,12.5,1.8
					c3.4,2,5.7,5.2,6.7,8.9l0,0c0.9,3.7,0.3,7.6-1.7,11c-2.2,3.7-5.9,6.4-10.2,7.4C978,201.8,973.6,201.1,969.9,198.9z"/>
			</g>
			<g>
				<rect x="950.5" y="189" transform="matrix(0.9701 -0.2426 0.2426 0.9701 -17.7235 237.5752)" width="10.9" height="3.5"/>
			</g>
			<g>
				<rect x="994.7" y="176.7" transform="matrix(0.9642 -0.2653 0.2653 0.9642 -11.4628 272.1229)" width="14" height="3.5"/>
			</g>
			<g>
				<rect x="902.8" y="199.6" transform="matrix(0.9641 -0.2656 0.2656 0.9641 -20.8105 248.8282)" width="14" height="3.5"/>
			</g>
		</g>
		<path class="st22" d="M906.3,208.1c0,0-5.3-32,12.2-40.3c17.5-8.3,55.9-2.5,67.7-13.6c0,0,18.4,20.6,19.4,36.3c0,0,2.2-6.3-2.5-24
			c-7.8-29.4-45.3-33.6-68.7-25.3C911,149.4,888.7,175.4,906.3,208.1z"/>
		<path class="st24" d="M963,145.9l-5.8,0.3l4.8-1.7c-1-1.4-1.9-2.9-2.6-4.4l-4.3,0.9l3.7-2.3c-1.1-2.5-1.9-5.1-2.4-7.5l-4.1-0.4
			l3.9-0.7c-0.3-1.5-0.5-2.9-0.7-4.2c-4.6-0.1-9.7,0.4-15.3,1.6c-3.5,0.8-6.9,1.9-10,3.2c-0.4,1.1-0.6,2.2-0.8,3.3l10.9-1.6
			l-11.1,4.6c0,3.6,0.9,7.4,3,10.6l13.4-0.6l-10.6,4.1c2.1,1.9,4.8,3.5,8.1,4.5c14.8,1.1,23.5-1,30.5-2.5
			C969,151.7,965.6,149.1,963,145.9z"/>
		<path class="st24" d="M997.4,152.2l1.9,3l-4.3-2.3c-0.6,0.1-1.1,0.3-1.7,0.4l2.5,3.9c0,0-2.6-2-4.6-3.5c-0.7,0.1-1.4,0.3-2.1,0.4
			c0,0.1,0,0.3,0,0.4c1.4,1.1,6.1,5,9.2,9.4c1.1-0.6,2.1-1.2,3-1.8l-1-2.4l2.2,1.6c0.9-0.6,1.8-1.3,2.7-1.9l-5.7-7.8
			C998.9,151.8,998.2,152,997.4,152.2z"/>
	</g>
	<path class="st25" d="M951.5,222.1c0,0,14.9,0.2,20.5-5.4c0,0-2.7,13.1-10,13.1C954.6,229.8,951.5,222.1,951.5,222.1z"/>
	<path class="st14" d="M959.6,239.4l2.5,6.8c0,0,15.5-0.9,15.5-3.3c0-2.5-2.9-9-2.9-9L959.6,239.4z"/>
</g>
<g>
	<path class="st26" d="M115.9,179.3c-19.8,0.4-9.9,29.2-20.1,37.9c-4.5,3.8-13.7,4.7-18.2,0.3c-4.2-4-1.9-14.5,3.7-8.4
		c0.1-10.3-16-7.2-12.3,5.2c2.3,7.8,10.4,15.3,18.6,15.9c-8.6,4.1-27.3,1.9-26.5-11.5c-6.6,6.6-6.2,14.2-6.1,18.4
		c1,33.6,46.6,40.3,60,32.4c-5.4,0.1-15.7,2.3-18.3,7.3c-2.9,5.4,1.1,14.4,7.1,15.6c-4.9-3.2-2.5-8.9,1.8-10.4
		c4.3-1.5,10,0.6,14.2,1.4c7.7,1.4,21.1,0,20.2-11.3c-0.1,7.6-1.9,17.3-11.5,17.7c19.4,11.7,55.5,0.1,69.7-13.5
		c16.3-15.7,6.1-44.3-4.3-61.1c-6.3-10.2-15.8-18.5-25.1-26c-3.3-2.7-7.8-7.6-12.6-6.1L115.9,179.3z"/>
	<path class="st27" d="M97.7,221.6c0,0-1.9,33.9-35.3,15.5c0,0,6.8,11.6,20.8,13.1c0,0-4,7.6-15.5,0c0,0,10.3,18.6,33.5,8.2
		C124.3,248,97.7,221.6,97.7,221.6z"/>
	<path class="st28" d="M177.4,446.4c0,0-3.2,0.3-7.4,4.8c-4.2,4.5-15.5,24.1-9.6,30.4c5.7,6.1,15.4,4.5,20.8-9.3
		c4.7-11.9,4.5-23,4.5-23L177.4,446.4z"/>
	<path class="st29" d="M324.1,449.1c0,0-5.6,1.4-5.5,5.9c0.2,4.6,11.8,35.3,23,31.4c11.2-3.9-2.6-35.6-7.8-40
		C328.8,442.1,324.1,449.1,324.1,449.1z"/>
	<path class="st30" d="M227.6,400.7l-37.3,47.5c0,0-8,11-14.1,7c-6.1-4.1-1.4-10.2-1.4-10.2l31.9-48.2L227.6,400.7z"/>
	<path class="st30" d="M304.4,392.7c0,0,11.3,17,13.5,25.3c2.2,8.3,5.2,33.5,5.2,33.5s0.9,5.2,7.4,3.9c6.5-1.3,7-5.7,7-5.7
		s-6.1-52.3-14.4-63.2C314.8,375.7,304.4,392.7,304.4,392.7z"/>
	<path class="st30" d="M193.1,296.6c0,0-40.9,2.2-71-22.7c0,0-10-0.5-14.2-1.4c0,0-8.3,7.1-9.8,4.6c-1-1.7,6.4-6.9,6.4-6.9
		s0.1-1.7-1-1.4c-3.6,0.9-12.4,5.3-13.1,3.2c-0.9-2.8,11.6-7.1,11.6-7.1l-0.3-1c0,0-20,1.5-16.5-2.2c3.3-3.6,15.6-2.8,15.6-2.8
		l1.9-2.4c0,0-12.3-3.8-10.9-8.1c1.4-4.3,3.3,0,8.1,1.4c4.7,1.4,11.8,3.8,11.8,3.8s-3.2-6.7-2.6-11c0.2-1.4,2-1.6,2.4,0.3
		s1.4,4,3.5,5c4.3,1.9,9.5,15.2,9.5,15.2c0.6,1.5,44.9,18.6,71.6,16L193.1,296.6z"/>
	<path class="st30" d="M246.7,240.5c9.8-20.4,15.3-57.4,11.8-62c0,0-5.7-7.4-7.9-10c-2.2-2.6-12.7-3.9-11.3-6.5
		c1.3-2.6,7.9-0.4,10.5,0c2.6,0.4,7.4-0.4,7-3.5c-0.4-3.1-5.2-19.2-2.2-20.5c3.1-1.3,4.4,16.1,7.4,15.3c3.1-0.9,1.3-16.1,4.4-16.6
		c3.1-0.4,0.4,17.5,2.6,17.9c2.2,0.4,2.2-15.3,5.7-14.4c3.5,0.9-3.5,15.7-0.4,15.7c3.1,0,7-9.6,9.2-7c2.2,2.6-6.1,9.2-6.5,11.8
		c-0.4,2.6,2.8,14.2-5.1,17.3c-1.7,0.7,1,49.3-5.6,68.7C259.5,265.8,246.7,240.5,246.7,240.5z"/>
	<path class="st31" d="M221.2,332.7c0,0-27.5,38.2-40.4,46.6c0,0,35.4,34.3,69.7,31.3c0,0,65.1,4.5,92.1-56.1c0,0-25-27.8-58.9-33.2
		L221.2,332.7z"/>
	<path class="st32" d="M220,265.4c0,0-18.6,10.2-39.9,10.9l-0.8,25.2c0,0,12.2-1.8,24.4,6.6c12.2,8.4,5.1,35.6,5.1,35.6
		s32,6.6,59-7.1c21.7-11.1,27.5-13.7,27.5-13.7s-13.7-47.3-31.3-61l6.9-19.1L246.4,232C246.4,232,240.8,251.4,220,265.4z"/>
	<path class="st33" d="M294.1,319.2v4.1c0.8-0.4,1.1-0.5,1.1-0.5S294.8,321.5,294.1,319.2z M292.9,315.5c-0.2-0.5-0.3-1-0.5-1.5H281
		v-13.1h6.5c-0.2-0.5-0.4-1-0.6-1.5H281v-13.1h0.1c-0.5-1.1-1.1-2.1-1.6-3.2v1.6h-13.1v-13.1h6.3c-0.4-0.5-0.7-1-1.1-1.5h-5.2v-6
		c-0.5-0.5-1-1-1.5-1.4v7.4h-13.1v-13.1h13.1v2.6l1.5-4.3v-13h3.2l-4.7-2.1v0.5h-13.1v-6.3l-1.5-0.7v6.9h-7.5
		c-0.3,0.5-0.6,1-0.9,1.5h8.4v13.1H237v-6c-0.5,0.7-1,1.3-1.5,2v4h-3.6c-0.5,0.5-1,1-1.5,1.5h5.1v13.1h-13.1v-6.3
		c-0.5,0.4-1,0.7-1.5,1.1v5.2h-11.2c-1.3,0.5-2.8,1-4.3,1.5h0.9v13.1H193v-9.9c-0.5,0.1-1,0.2-1.5,0.3v9.6h-11.7l0,1.5h11.7v13.1
		h-12.1l0,1.5h12.2v1.7c0.5,0.1,1,0.3,1.5,0.4v-2.2h13.1v9.5c0.6,0.7,1.1,1.4,1.5,2.2v-11.7h13.1v13.1h-12.4c0.2,0.5,0.4,1,0.6,1.5
		h11.7v13.1h-10c0,0.5,0,1-0.1,1.5h10.1v13.1h-11.9c-0.1,0.3-0.1,0.4-0.1,0.4s3.1,0.6,8.3,1.1h3.8v0.3c0.5,0,1,0.1,1.5,0.1v-0.4
		h13.1v0.2c0.5,0,1-0.1,1.5-0.1v-0.1h0.7c3.4-0.3,6.9-0.8,10.4-1.5H237v-13.1h13.1v12.7c0.5-0.1,1-0.2,1.5-0.4v-12.3h13.1v7.8
		c0.5-0.2,1-0.5,1.5-0.7v-7.1h13.1v0.5c1.5-0.7,2.8-1.4,4.1-2H281v-13.1H292.9z M251.7,242.2h13.1v13.1h-13.1V242.2z M206.1,299.3
		H193v-13.1h13.1V299.3z M220.8,299.3h-13.1v-13.1h13.1V299.3z M220.8,284.6h-13.1v-13.1h13.1V284.6z M235.5,343.2h-13.1v-13.1h13.1
		V343.2z M235.5,328.6h-13.1v-13.1h13.1V328.6z M235.5,313.9h-13.1v-13.1h13.1V313.9z M235.5,299.3h-13.1v-13.1h13.1V299.3z
		 M235.5,284.6h-13.1v-13.1h13.1V284.6z M250.1,328.6H237v-13.1h13.1V328.6z M250.1,313.9H237v-13.1h13.1V313.9z M250.1,299.3H237
		v-13.1h13.1V299.3z M250.1,284.6H237v-13.1h13.1V284.6z M250.1,269.9H237v-13.1h13.1V269.9z M264.8,328.6h-13.1v-13.1h13.1V328.6z
		 M264.8,313.9h-13.1v-13.1h13.1V313.9z M264.8,299.3h-13.1v-13.1h13.1V299.3z M264.8,284.6h-13.1v-13.1h13.1V284.6z M279.5,328.6
		h-13.1v-13.1h13.1V328.6z M279.5,313.9h-13.1v-13.1h13.1V313.9z M279.5,299.3h-13.1v-13.1h13.1V299.3z"/>
	<path class="st34" d="M233.7,253.3c-3.6,4.1-8.1,8.3-13.8,12.1c0,0-5.2,2.9-13.3,5.7c3,2.5,9.8,6.8,18.7,2.5
		C236.7,268,234.9,257.4,233.7,253.3z"/>
	<g>
		<path class="st26" d="M106.6,207.6c0,0,0.6,26.6,19.7,36.4l-4.8-8.3c0,0,12.1,16.6,23.7,15.4c11.6-1.2,14.4-28.8,14.4-28.8
			l-30.5-34L106.6,207.6z"/>
		<path class="st26" d="M221.1,141.2c0,0,15.8,25.7,13.7,36.7c-2.1,11-22.4-3.1-22.4-3.1l-13.2-22.5l11.8-17.5L221.1,141.2z"/>
		<path class="st30" d="M240.2,172.6c2.9,0.4,5.3,2.1,5.9,5.3c1.5,7.4-7.7,15.5-14.9,13.9C218.1,188.9,229.8,171.1,240.2,172.6z"/>
		<path class="st35" d="M240.4,176.2c0,0-3.6,3.5-2.5,4.3c1.1,0.8,2.3-1.9,2.8-0.4c0.5,1.5-4.4,10.6-4.8,4.6
			C235.5,178.7,238.2,174.2,240.4,176.2z"/>
		<path class="st30" d="M131,253c-0.5,2.9,0.3,5.8,3.1,7.4c6.4,3.8,16.9-2.6,17.6-10C153.2,236.7,132.9,242.4,131,253z"/>
		<path class="st35" d="M135.8,254.9c0,0,4.6-2.1,4.9-0.7c0.4,1.3-2.6,1.4-1.4,2.4c1.2,1,11.5-0.2,6-2.8
			C139.9,251.2,134.8,252.1,135.8,254.9z"/>
		<path class="st30" d="M226,169.7c22.2,20.5,30.6,58,1.8,82.4c-29.3,24.9-59.8,25-82,4.5c-22.2-20.5-29.3-61.5-7.3-85.2
			C160.5,147.7,203.8,149.2,226,169.7z"/>
		<g>
			<path class="st25" d="M219.1,227.9c1.6-8.9-1.5-17.1-1.5-17.1s-4.5,9.7-16.5,18.9c-12,9.3-20.1,7-20.1,7s7.1,6.9,15.7,8.7
				C200.3,240.1,207.6,231.4,219.1,227.9z"/>
			<path class="st25" d="M201.1,229.7c12-9.3,16.5-18.9,16.5-18.9L181,236.7C181,236.7,189,239,201.1,229.7z"/>
			<path class="st36" d="M211.4,241.7c4.6-4.1,6.8-9.1,7.6-13.8c-9.9-0.4-19.5,6.4-22.4,17.6C201.4,246.4,206.7,245.9,211.4,241.7z"
				/>
		</g>
		<path class="st35" d="M187.5,220.1c0,0,4.7,2.4,6.8-0.2c2.1-2.6,2.8-6.9,1.7-6.1c-1.1,0.7-3.6,4.1-4.9,4.7
			C189.8,219,187.2,219.4,187.5,220.1z"/>
		<g>
			<ellipse transform="matrix(0.5519 -0.8339 0.8339 0.5519 -113.7918 229.7871)" cx="156.9" cy="220.8" rx="3.5" ry="3.5"/>
		</g>
		<g>
			<ellipse transform="matrix(0.5519 -0.8339 0.8339 0.5519 -64.1991 255.7173)" cx="205.9" cy="187.6" rx="3.5" ry="3.5"/>
		</g>
		<path class="st26" d="M177.3,159.7c0,0-9,29.9-27.3,41.3l0.2-12.7c0,0-15.6,19.4-16.5,28.9l-5.4-11c0,0-0.3,15.6,1,27
			c0,0-38.7-11.5-18.5-59.6l-14.3,1.2c0,0,17.5-28.8,39.5-42.3c26.9-16.5,44.8-3.7,44.8-3.7s24.8-9.6,42.3,10c12.5,14-9,0.3-9,0.3
			s22.4,22.7,22.1,38.4C236.2,177.3,205.6,155.3,177.3,159.7z"/>
		<path class="st27" d="M174.1,131.2c0,0-18.7-8-37.4,7.1c-18.7,15.2-27.6,27.8-27.6,27.8l27-4.2c0,0-20.2,20.3-20.8,41.4l27.4-29.3
			l-5.5,23.6l23.2-28.1l-1.4,10.1l15.9-34l-13.7,1.8C161.1,147.5,164.8,133.4,174.1,131.2z"/>
		<path class="st27" d="M184.8,143.9c0,0,25.1,5.3,40.8,20.4l-11.1-15.2c0,0,5.6,0.3,9.8,5.3C228.5,159.4,214.8,130.2,184.8,143.9z"
			/>
	</g>
	<path class="st30" d="M230.8,256.4c-0.9,0.9-1.9,1.9-3,2.8c-1.5-1.8-5.3-6.7-5.9-11.9c-0.8-6.5-15.3,8-15.3,8s9.2,6.9,6.9,12.6
		c0,0,0.1,0.1,0.3,0.3c-1.3,0.5-2.7,1.1-4.3,1.7c2.8,1.7,8.7,3.9,15.8-1.3C231.8,264,231.7,259.2,230.8,256.4z"/>
</g>
<g>
	<g>
		<path class="st13" d="M399.6,182c0,0-3.5,5.2-2.4,9.6c1.1,4.4,4.9,4.2,4.9,4.2l2.5-6.8c0,0-1.8-5.4-2.1-6.2
			C402.4,182.1,399.6,182,399.6,182z"/>
		<path class="st37" d="M399.5,184.5c0,0-4.2-3.7-4.1-5.7c0.1-2,1.4-2.5,3.1-1.9c1.8,0.6,3.7,2.7,3.7,2.7s2-5.8,4.7-4.4
			c2.7,1.4,8.1,6.9,8,9.4c-0.1,2.5-2.1,9.1-0.7,10.9c1.5,1.8,23.1,23.7,27.9,28c13.3,11.9,29.6,21.9,29.6,21.9l-12.5,14.5
			c0,0-21.4-15.9-31.3-25.5c-12.1-11.7-16.7-26.6-20.6-30.8c-3.9-4.2-8.4-7.4-8.6-9C398.7,193.1,401.4,188.9,399.5,184.5z"/>
		<path class="st13" d="M408.2,182.8c0,0-3.3-0.4-3.2-1.4c0-1,0.6-2.5,0.6-2.5L408.2,182.8z"/>
	</g>
	<path class="st38" d="M454.4,186.1c0,0-13.6-41.5,22.4-75.6c39.2-37.1,76.6-1.3,76.6-1.3s36.7,6,44.2,43.4
		c7.5,37.4-14.1,62.9-27.2,65.7C557.4,221.1,454.4,186.1,454.4,186.1z"/>
	<path class="st38" d="M553.8,115.6c0,0-9-10.9-30.2-10.5c-21.2,0.4-56.5,11.8-60.4,49.8c-3.9,38,84.1,63.3,101,59.7
		c16.9-3.6,26.4-29.1,26-47.3C589.6,149.1,584.3,117.5,553.8,115.6z"/>
	<path class="st37" d="M564.1,223.6c0,0,10.8-1.5,17.3-10.3c6.5-8.7,5.6-25.5-9.6-13.8C556.5,211.1,561.6,223.2,564.1,223.6z"/>
	<path class="st13" d="M577,205.4c0,0-5.4,0.3-5.1,1.7c0.3,1.5,3.2,0.1,2.6,1.6c-0.7,1.5-11.1,5.5-7.2,0.4
		C571.2,203.9,576.6,202.2,577,205.4z"/>
	<path class="st39" d="M471.8,139.4c0,0-1.8,12.5-12.1,18.7C459.7,158.1,472.5,154,471.8,139.4z"/>
	<path class="st37" d="M464.7,147.2c0,0-14.4,26.5-11.1,52c3.3,25.5,27.4,53.4,69.1,46.3c33.3-5.7,42.7-25.1,41.4-21.9
		c0,0,24.4-53.7-1.5-85.4C536.7,106.4,477.8,133.2,464.7,147.2z"/>
	<path class="st13" d="M494.7,205.2c0,0,2.3,5.6,5.9,4.9c3.7-0.7,7.5-3.8,6-4c-1.5-0.2-6.1,0.8-7.6,0.4
		C497.4,206,494.9,204.4,494.7,205.2z"/>
	<path class="st38" d="M483,123.8c0,0-18.9,16.6-19.8,28.2c0,0,8.6-9.6,16.2-12c0,0-11,6.5-13.2,12.5c0,0,7.7,1.6,17.6-4.6
		c9.8-6.2,15.6-13.2,15.6-13.2s-10.7,16.6-17.3,18.4c0,0,14.3,9.6,30.9-0.4c16.5-10,15.6-9,15.6-9s-11.2,12.9-16.5,15.2
		c0,0,18-1.4,24.8-13.2c0,0-7.1,11-14.6,14.6c0,0,11.2,6.1,18.9-2.5c7.7-8.6,8.2-12.8,8.2-12.8s-3.8,12.8-10,16.6
		c0,0,12.5-1.6,12.6-14.7c0,0,7.6,4,11.3,17c3.6,12.9,6,35.3-0.8,45.5c0,0,8.7-4.4,14.6-14.1c5.9-9.7,4.6-54.9-15.7-69.9
		C540.9,110.6,483,123.8,483,123.8z"/>
	<path d="M543.7,190.7c0.1,1.9-1.4,3.6-3.3,3.7c-1.9,0.1-3.6-1.4-3.7-3.3c-0.1-1.9,1.4-3.6,3.3-3.7
		C542,187.3,543.6,188.8,543.7,190.7z"/>
	<path class="st40" d="M559.9,132.8c-0.8-0.3-2,0.5-1.3,1.8c3.3,6.4,13.2,26.3,15.8,44.7c0.1,0.6,0.2,1.1,0.2,1.7
		c2.7,22.7-0.1-19.6-0.1-19.6s5.5,4.6,8.2,20.1c0.5,2.8,1.3,5,0.9-1.6c-0.6-10.7-2.3-26.5-7.3-36.5c-3.2-6.3-5.4-10.4-6.8-13.1
		c-1.3-2.4-2.3-2.7-1.8,0.2c1,5.2,2.4,13.3,2.4,17.4C570.1,147.8,565.6,135.1,559.9,132.8z"/>
	<path class="st40" d="M502.8,115.1c0,0-0.2,0.1-0.7,0.2c-3.6,1-20.8,6.7-32.4,23.8c0,0,15.7-6,13.2-2.7c-2.5,3.3-4.5,7.9-7.4,9
		c0,0,10.2-3.7,17.4-7.8c7.2-4.1,8.6-5.1,8.6-5.1s0.7,12.6-5.1,16.3c-5.7,3.8,0.6,6.9,13.9,0.8c13.3-6.1,20-10.4,22.5-13.5
		c2.6-3.1-1.4,10.9-6.4,13.9c-5,3,8.1-1.4,13.7-6.9c0,0-0.6,7.7-6.3,11.5c-5.7,3.8,11.6-4.3,14.2-12.1c2.6-7.8,1.8-18.6,1.8-18.6
		s-3.2,5.6-3.7,3.9c-0.6-1.7,3.5-8.1-0.4-6.9c-3.9,1.2-13.7,6.6-11.9,4.6c1.9-2.1,3.9-6.1,0-4.5c-3.9,1.7-10.3,6.2-10.3,6.2
		s9.2-12.3,4.9-9.9c-4.3,2.4-17.5,10.3-17.5,10.3s17.8-14.5,13.4-14c-4.4,0.5-30.8,11-25.5,8C504,118.5,511.8,112.4,502.8,115.1z"/>
	<path d="M484.3,178.3c0.1,1.9-1.4,3.6-3.3,3.7c-1.9,0.1-3.6-1.4-3.7-3.3c-0.1-1.9,1.4-3.6,3.3-3.7
		C482.5,174.9,484.2,176.4,484.3,178.3z"/>
	<path class="st40" d="M500.3,107c0,0-41.5-0.4-47.9,56.4c0,0,8.4-24,12.7-27.2c4.3-3.2-1.9,7.5-1.7,8.2
		C463.5,145.2,482.6,115.6,500.3,107z"/>
	<path class="st25" d="M479.8,209.9c0,0,26.4,8.6,42.5,8.7c0,0-8.7,21.7-26.4,16.7C478.2,230.4,479.8,209.9,479.8,209.9z"/>
	<path class="st41" d="M506.5,223.6c-11.2-9.9-21.7,1.6-22.7,2.8c2.4,3.8,6.1,7.3,12.1,9c6.4,1.8,11.6,0.1,15.7-2.8
		C511,229.4,509.5,226.3,506.5,223.6z"/>
	<path class="st42" d="M487.1,446.6c0,0-12.8,43.3-2.9,45.2c10,1.9,21.9-26.1,21.4-38.5C505.1,440.9,490.9,441.8,487.1,446.6z"/>
	<path class="st42" d="M408.2,411.1c-1.6,1.6-16.9,33.2-9,37.4c7.9,4.2,27.4-29.5,26.3-34.8c-1.1-5.3-17.4-4.2-17.4-4.2V411.1z"/>
	<path class="st37" d="M389.8,346.8c0,0-7.4,11.6-2.1,31.6c5.3,20,14.2,37.9,14.2,37.9s7.9,3.8,10-7.8c0,0-7.4-17-7.4-33.3
		c0-16.3,5.8-30.6,5.8-30.6L389.8,346.8z"/>
	<path class="st37" d="M474.7,384.5c0,0-2.2,49.8,13.6,69.8c0,0,6.9,5.3,10-1.6c0,0-7.4-20.6-6.8-34.3c0.5-13.7,5.3-30,5.3-30
		L474.7,384.5z"/>
	<path class="st37" d="M504,280.5c0,0,7.9,18.2,18.2,30c10.3,11.9,26.9,26.9,26.9,26.9s-4.7,0.8-7.1,4.3c-2.4,3.6-3.2,7.1-6.3,8.7
		c0,0,1.2,3.2,4.7,0.4c3.6-2.8,5.5-7.9,7.5-6.7c2,1.2,2.8,9.5,2.4,12.3c-0.4,2.8-1.2,7.1-2,8.3c-0.8,1.2,5.9,6.3,10.3,1.6
		c4.3-4.7,3.6-16.6,3.6-16.6s4,1.6,4.3,3.6c0.4,2,1.2,5.5,1.2,5.5s2.8,1.2,3.2-5.1c0.4-6.3-2.8-9.5-5.5-11.5c-2.8-2-5.9-5.1-8.3-9.1
		c-2.4-4-27.7-38.7-30.8-46.2s-6.7-17.8-6.7-17.8L504,280.5z"/>
	<path class="st37" d="M491.2,259.8c7.5,2.1,11.5-1.8,13.4-5.2c-5.8-3.5-13.7-7.6-23.3-11.1C481.1,246.9,481.1,257,491.2,259.8z"/>
	<path class="st37" d="M487,238c0,0-1.3,6.6-4,7.9c-2.6,1.3,14.5,7.6,14.5,7.6s-0.3-7.1,3.7-11.1C505.2,238.5,487,238,487,238z"/>
	<path class="st43" d="M478.3,296.2c12.1,1.1,13.7-3.2,22.1-16.3c5-7.9,9.3-15.3,11.9-20.1c-6.1-4.4-19.1-12.7-37.5-18.4
		c-4.3,7.3-14.6,25.6-17.1,34.3C454.6,286.7,466.2,295.1,478.3,296.2z"/>
	<path class="st37" d="M483.3,244.3c-0.2,2.3-0.2,8.4,6.5,9.3c4.8,0.7,7.5-0.9,8.9-2.3C494.3,249,489.1,246.6,483.3,244.3z"/>
	<path class="st44" d="M441.3,294.2c0,0-57.2,24.2-55.4,67.3c0,0,10.2,17.3,31.4,8.7c0,0,27.6-40.3,45.2-33.1
		c17.6,7.2,4.8,59,10.4,76.4c0,0,21.2,8,28.8-2.8c0,0,12-49.3,6-73.2c-6-23.9-9.5-33.2-9.5-33.2L441.3,294.2z"/>
	<path class="st45" d="M454.6,232.1L442.1,253l12,10.3l-29.5,39.9c0,0,51.2,34.8,85.6,29.2l-3.4-41l5.8,7.9l19.9-15.5
		c0,0-10.2-24.5-37.4-36.1C467.8,236.1,454.6,232.1,454.6,232.1z"/>
	<path class="st44" d="M469.8,260.6c-6.3-1.8-16,1.2-23,7.5c-12.5,11.3-23.6,26.4-30.3,43.3c0,0,24.4,10,32,12.8
		c7.6,2.8,54.8,12.8,54.8,12.8s1.6-45.2-1.6-58C499.5,270.6,481.8,264.1,469.8,260.6z"/>
	<path class="st46" d="M473.5,237.6c0,0-19.2,20.4-23.8,33c0,0,4.2,5.8,9.2,4.8l23.5-33C482.4,242.4,479.4,237.6,473.5,237.6z"/>
	<path class="st46" d="M503.6,248.6c0,0-17.6,26.8-20.8,34.2c0,0,2.8,6.4,10.8,4l18-32.6C511.6,254.2,508.2,249,503.6,248.6z"/>
</g>
<g>
	<path class="st47" d="M1228.1,217.5c0,0-30.8,22-30.8,39.5C1197.3,257,1214.1,231.6,1228.1,217.5z"/>
	<g>
		<path class="st48" d="M1286.5,193.7c0,0,56.4,2.1,67.7,54.5l-2.7,6.3l-10-13.3l5.7,25.4l-2.4,2.4l-16.9-22.7L1286.5,193.7z"/>
		<path class="st48" d="M1257.3,196.1c0,0-50.1,18.6-62.6,62.6l9.4,9.4l8.3-11.9l-5.1,16.6l7.3,13.3l12.5-16.5l44.1-64.4
			L1257.3,196.1z"/>
		<path class="st49" d="M1300.6,439.2c0,0-5.7-0.6-5.7,8.5s4.8,19.6,10.8,13.6c6-6,1.4-23.5,1.4-23.5L1300.6,439.2z"/>
		<path class="st49" d="M1264.3,496.9c0,0-19.8,24.3-10.8,24.3c9.1,0,23.5-19.2,21.7-24.3C1273.4,491.9,1264.3,496.9,1264.3,496.9z"
			/>
		<path class="st50" d="M1240.2,406.8c-0.3,0.8-5.1,42.9-2.4,52.5c2.7,9.5,16.2,24.4,23.2,35.4c6.1,9.5,9.1,6.9,9.1,6.9
			c8.6-3.9-16-37-18.8-43.5c-2.7-6.5,8.1-43.4,8.1-43.4L1240.2,406.8z"/>
		<path class="st50" d="M1294.9,412.6c0,0-2.3,34.6,6.1,35.6c4.7,0.5,6.5-6.2,6.9-10.3c0.5-5.3,2.9-24.6,2.3-24.4
			C1309.7,413.6,1294.9,412.6,1294.9,412.6z"/>
		<path class="st50" d="M1265.6,322.6l-7.2-12.3c0,0-31.4,21.2-37.9,23.6c-5.6,2-10.3,3.5-12.3,4.4c-1.1,0.5-9.1,3.5-10.9,3.7
			c-2.6,0.3-6.7-0.6-9.5-2c-4.7-2.4-5.9-6.1-7.7-4.1c-1.8,2,0.2,4.8,2.5,5.7c0,0-9-2.9-10.1,0.9c-0.7,2.5,7.2,2.2,7.4,3.5
			c0.2,1.3-9.4,1.1-8.4,3.5c1.2,3.1,8.9,0.5,8.9,2.7c0,2.2-5.6,3.5-3.7,5.6c2.1,2.3,8-2.3,8.6-0.8c0.5,1.5-4.8,3.7-1.9,5.6
			c2.5,1.6,16.1-5,19.5-8.5c0.6-0.6,3.7-2.6,5.2-2.7C1213.4,350.9,1265.6,322.6,1265.6,322.6z"/>
		<path class="st50" d="M1307.9,316.8l-0.3-18.8c0,0,32.1-3.2,38.7-5.1c5.7-1.7,10.3-3.3,12.5-3.7c1.2-0.2,9.4-2.6,11-3.5
			c2.2-1.3,5-4.5,6.4-7.3c2.4-4.8,1.1-8.4,3.7-7.8c2.6,0.6,2.7,4,1.4,6c0,0,5.5-7.7,8.7-5.3c2.1,1.5-4.5,6-3.8,7.2
			c0.6,1.2,8.2-4.7,8.9-2.2c0.8,3.2-6.9,5.7-5.5,7.5c1.3,1.8,6.6-0.6,6.3,2.3c-0.3,3.1-7.8,3-7.4,4.5c0.4,1.5,6.1,0.2,4.8,3.3
			c-1.1,2.8-15.9,5.6-20.7,4.8c-0.9-0.1-4.3,0.9-5.8,0.9C1348.7,299.5,1307.9,316.8,1307.9,316.8z"/>
		<path class="st51" d="M1260.5,303.9c0,0-27.1,9.7-27.1,22.7c0,0,2.1,11.2,11.2,11.2c9.2,0,27.2-8.4,18.8,0
			c-8.4,8.4-45.1,22-52.8,46c0,0,19,1.4,20.7,14.9c1.7,13.6,28.4,38.7,49.2,29.6c20.8-9.1,42.9-13.6,49.1-7.4
			c6.2,6.2,13.5-11.3,13.5-11.3s-11.4-74.7-23.5-90c0,0,23.5-5.4,27.1-11.5c3.6-6.1-1-23.1-16.9-18.7
			C1314,293.8,1260.5,303.9,1260.5,303.9z"/>
		<path class="st50" d="M1288.9,318.1c10.7-2.3,10.5-11.9,9.8-16.4c0,0-0.1,0-0.1,0c-2,1.1-20.6,7.3-24.5,7.1c0,0,0,0-0.1,0
			C1275.3,313.2,1279,320.2,1288.9,318.1z"/>
		<g>
			<path class="st48" d="M1331.1,233c5.4,27.5-16.2,54.5-47.1,60.6c-30.9,6.1-62.7-8.2-66.7-35.9c-4-27.4,16.2-57.4,47-63.5
				C1295.2,188.1,1325.7,205.5,1331.1,233z"/>
			<path class="st50" d="M1334.8,251.2c2.2,1.3,3.6,3.5,3,6.4c-1.3,6.5-11.6,10-16.9,6.2C1311.2,256.8,1326.8,246.4,1334.8,251.2z"
				/>
			<path class="st52" d="M1333.7,254.2c0,0-4.1,1.6-3.5,2.6c0.6,1.1,2.5-0.7,2.4,0.6c-0.1,1.3-7.2,7.1-5.5,2.1
				C1328.8,254.6,1332.6,251.9,1333.7,254.2z"/>
			<path class="st52" d="M1220.8,277.4c0,0,4.4-0.1,4.3,1.1c-0.2,1.2-2.6,0.3-2,1.5c0.6,1.2,9.4,3.8,5.8-0.2
				C1225.4,275.8,1220.9,274.7,1220.8,277.4z"/>
			<path class="st50" d="M1323.3,239.2c11,24.3,4.9,57.6-26.8,67.5c-32.4,10.2-57.2-0.2-68.1-24.5c-11-24.3,2.2-54.1,28.1-65.8
				C1282.4,204.7,1312.3,214.9,1323.3,239.2z"/>
			<path class="st52" d="M1272.3,276.5c0,0,3,3.6,5.5,2.2c2.5-1.4,4.6-4.6,3.5-4.4c-1.1,0.2-4.3,2.1-5.5,2.1
				C1274.6,276.5,1272.3,275.9,1272.3,276.5z"/>
			<g>
				<path d="M1254.5,264.6c1.1,1.6,0.6,3.8-1,4.9c-1.6,1.1-3.8,0.6-4.9-1c-1.1-1.6-0.6-3.8,1.1-4.9
					C1251.3,262.5,1253.5,263,1254.5,264.6z"/>
			</g>
			<g>
				<path d="M1300.4,255.5c-0.4,1.9,0.9,3.7,2.8,4.1c1.9,0.4,3.8-0.9,4.1-2.8c0.4-1.9-0.9-3.8-2.8-4.1
					C1302.6,252.4,1300.8,253.6,1300.4,255.5z"/>
			</g>
			<path class="st48" d="M1316.8,242.5l-3.5-11l6.6,11.4c2.5,0.4,5,0.9,7.4,1.4c0,0-21.5-54.9-59.6-37.9
				c-38.1,17-46.7,25.7-44.6,54.8c0,0,2.4-1.4,6.8-3.4l1.3-11.7l3.2,9.7c5.9-2.6,13.9-5.6,23.4-8.3l-0.4-10.3l3.1,9.6
				c7-1.9,14.8-3.4,23-4.4l-2.2-11.1l6.2,10.7L1316.8,242.5z"/>
			<g>
				<path class="st48" d="M1226.6,241.1c0,0,6.8,48.8,17.9,59.3l-22.5-3.8c0,0-15.3-40.1,3.3-70.5L1226.6,241.1z"/>
			</g>
			<g>
				<path class="st48" d="M1317.1,223.2c0,0,12.3,47.7,6,61.6l19.4-12c0,0-1.1-42.9-29.9-63.9L1317.1,223.2z"/>
			</g>
			<path class="st47" d="M1277.5,207c0,0,10.4,8.7,19.2,28.5l-0.6-10.7c0,0,5.9-2.7,13.8,9.3c0,0,0.5-19.2-16.5-27.5l1.8,8.9
				C1295.2,215.5,1287.9,206.5,1277.5,207z"/>
			<path class="st47" d="M1259.1,210.6c0,0-6.2,12-6.9,33.7l-3.5-10.1c0,0-6.5-0.3-9.3,13.8c0,0-7.8-17.6,4.8-31.8l1.8,8.9
				C1246,225.3,1249.3,214.1,1259.1,210.6z"/>
			<path class="st47" d="M1224.9,233.8c0,0-8.8,34.2,0.2,57.1l0.6-19.8c0,0,0.9,17.1,8.6,25C1234.4,296,1221.9,264,1224.9,233.8z"/>
			<path class="st47" d="M1316.6,215.7c0,0,21.2,28.3,21.5,52.8l-8.1-18.1c0,0,5.7,16.1,1.5,26.4
				C1331.6,276.8,1331,242.4,1316.6,215.7z"/>
		</g>
		<path class="st47" d="M1308.7,201.8c0,0,32.2,15,41.6,41.9L1308.7,201.8z"/>
		<path class="st10" d="M1267.7,289.8c0,0,16.5,1,27.2-7.3c0,0-1.8,14.1-12.3,16.5C1272.2,301.5,1267.7,289.8,1267.7,289.8z"/>
		<path class="st41" d="M1277.1,299c1.6,0.4,3.5,0.5,5.5,0c2.8-0.6,4.9-2.1,6.6-3.9C1283.6,292.9,1279.3,296.1,1277.1,299z"/>
	</g>
</g>
</svg>
